<svg width="32" height="32" viewBox="0 0 32 32" fill="none" xmlns="http://www.w3.org/2000/svg">
<rect x="0.5" y="0.5" width="31" height="31" rx="15.5" stroke="white"/>
<g clip-path="url(#clip0_5_152)">
<path d="M16.003 11.4062C14.0155 11.4062 12.4124 13.0094 12.4124 14.9969C12.4124 16.9844 14.0155 18.5875 16.003 18.5875C17.9905 18.5875 19.5937 16.9844 19.5937 14.9969C19.5937 13.0094 17.9905 11.4062 16.003 11.4062ZM16.003 17.3312C14.7187 17.3312 13.6687 16.2844 13.6687 14.9969C13.6687 13.7094 14.7155 12.6625 16.003 12.6625C17.2905 12.6625 18.3374 13.7094 18.3374 14.9969C18.3374 16.2844 17.2874 17.3312 16.003 17.3312ZM20.578 11.2594C20.578 11.725 20.203 12.0969 19.7405 12.0969C19.2749 12.0969 18.903 11.7219 18.903 11.2594C18.903 10.7969 19.278 10.4219 19.7405 10.4219C20.203 10.4219 20.578 10.7969 20.578 11.2594ZM22.9562 12.1094C22.903 10.9875 22.6468 9.99373 21.8249 9.17498C21.0062 8.35623 20.0124 8.09998 18.8905 8.04373C17.7343 7.9781 14.2687 7.9781 13.1124 8.04373C11.9937 8.09685 10.9999 8.3531 10.178 9.17185C9.35615 9.9906 9.10303 10.9844 9.04678 12.1062C8.98115 13.2625 8.98115 16.7281 9.04678 17.8843C9.0999 19.0062 9.35615 20 10.178 20.8187C10.9999 21.6375 11.9905 21.8937 13.1124 21.95C14.2687 22.0156 17.7343 22.0156 18.8905 21.95C20.0124 21.8968 21.0062 21.6406 21.8249 20.8187C22.6437 20 22.8999 19.0062 22.9562 17.8843C23.0218 16.7281 23.0218 13.2656 22.9562 12.1094ZM21.4624 19.125C21.2187 19.7375 20.7468 20.2094 20.1312 20.4562C19.2093 20.8219 17.0218 20.7375 16.003 20.7375C14.9843 20.7375 12.7937 20.8187 11.8749 20.4562C11.2624 20.2125 10.7905 19.7406 10.5437 19.125C10.178 18.2031 10.2624 16.0156 10.2624 14.9969C10.2624 13.9781 10.1812 11.7875 10.5437 10.8687C10.7874 10.2562 11.2593 9.78435 11.8749 9.53748C12.7968 9.17185 14.9843 9.25623 16.003 9.25623C17.0218 9.25623 19.2124 9.17498 20.1312 9.53748C20.7437 9.78123 21.2155 10.2531 21.4624 10.8687C21.828 11.7906 21.7437 13.9781 21.7437 14.9969C21.7437 16.0156 21.828 18.2062 21.4624 19.125Z" fill="white"/>
</g>
<defs>
<clipPath id="clip0_5_152">
<rect width="14" height="16" fill="white" transform="translate(9 7)"/>
</clipPath>
</defs>
</svg>
