<svg width="32" height="32" viewBox="0 0 32 32" fill="none" xmlns="http://www.w3.org/2000/svg">
<rect x="0.5" y="0.5" width="31" height="31" rx="15.5" stroke="white"/>
<g clip-path="url(#clip0_5_146)">
<path d="M23.3562 12.7406C23.3656 12.8812 23.3656 13.025 23.3656 13.1656C23.3656 17.5 20.0656 22.4969 14.0344 22.4969C12.175 22.4969 10.45 21.9594 9 21.025C9.2625 21.0562 9.51875 21.0656 9.79062 21.0656C11.325 21.0656 12.7344 20.5469 13.8625 19.6656C12.4219 19.6344 11.2125 18.6906 10.7969 17.3906C11 17.4219 11.2031 17.4406 11.4156 17.4406C11.7094 17.4406 12.0031 17.4 12.2781 17.3281C10.775 17.025 9.65 15.7031 9.65 14.1094V14.0687C10.0875 14.3125 10.5937 14.4656 11.1312 14.4844C10.2469 13.8969 9.66875 12.8906 9.66875 11.7531C9.66875 11.1437 9.83125 10.5844 10.1156 10.0969C11.7313 12.0875 14.1562 13.3875 16.8781 13.5281C16.8281 13.2844 16.7969 13.0312 16.7969 12.7781C16.7969 10.9719 18.2594 9.5 20.075 9.5C21.0188 9.5 21.8719 9.89687 22.4719 10.5344C23.2125 10.3937 23.925 10.1187 24.5531 9.74375C24.3094 10.5062 23.7906 11.1437 23.1125 11.55C23.7719 11.4781 24.4125 11.2969 25 11.0438C24.5531 11.6937 23.9937 12.2719 23.3562 12.7406Z" fill="white"/>
</g>
<defs>
<clipPath id="clip0_5_146">
<rect width="16" height="16" fill="white" transform="translate(9 8)"/>
</clipPath>
</defs>
</svg>
